HIERARCHY
ROOT Hips
{
	OFFSET 0.000000 100.481300 0.000000
	CHANNELS 6 Xposition Yposition Zposition Xrotation Yrotation Zrotation
	JOINT Spine
	{
		OFFSET -0.279200 12.230698 -2.892100
		CHANNELS 3 Xrotation Yrotation Zrotation
		JOINT Spine1
		{
			OFFSET -0.325700 14.269203 -3.374200
			CHANNELS 3 Xrotation Yrotation Zrotation
			JOINT Spine2
			{
				OFFSET -0.372300 16.307602 -0.352600
				CHANNELS 3 Xrotation Yrotation Zrotation
				JOINT Neck
				{
					OFFSET -0.418800 17.814194 8.416900
					CHANNELS 3 Xrotation Yrotation Zrotation
					JOINT Head
					{
						OFFSET 0.000000 7.031097 3.806800
						CHANNELS 3 Xrotation Yrotation Zrotation
						JOINT HeadTop_End
						{
							OFFSET 0.000000 24.646606 12.978600
							CHANNELS 3 Xrotation Yrotation Zrotation
							End Site
							{
								OFFSET 0.000000 27.854965 0.000000
							}
						}
					}
				}
				JOINT LeftShoulder
				{
					OFFSET 16.952999 14.495407 -7.737500
					CHANNELS 3 Xrotation Yrotation Zrotation
					JOINT LeftArm
					{
						OFFSET 9.308998 -2.777710 0.208600
						CHANNELS 3 Xrotation Yrotation Zrotation
						JOINT LeftForeArm
						{
							OFFSET 29.972298 0.000000 0.000000
							CHANNELS 3 Xrotation Yrotation Zrotation
							JOINT LeftHand
							{
								OFFSET 26.026505 0.000000 0.000000
								CHANNELS 3 Xrotation Yrotation Zrotation
								JOINT LeftHandThumb1
								{
									OFFSET 12.240501 -7.147949 9.207150
									CHANNELS 3 Xrotation Yrotation Zrotation
									JOINT LeftHandThumb2
									{
										OFFSET 4.138618 -2.389435 2.389433
										CHANNELS 3 Xrotation Yrotation Zrotation
										JOINT LeftHandThumb3
										{
											OFFSET 2.726913 -1.574387 1.574386
											CHANNELS 3 Xrotation Yrotation Zrotation
											JOINT LeftHandThumb4
											{
												OFFSET 3.941010 -2.275345 2.275342
												CHANNELS 3 Xrotation Yrotation Zrotation
												End Site
												{
													OFFSET -0.005798 5.087799 0.009903
												}
											}
										}
									}
								}
								JOINT LeftHandIndex1
								{
									OFFSET 24.424698 -1.985611 5.953459
									CHANNELS 3 Xrotation Yrotation Zrotation
									JOINT LeftHandIndex2
									{
										OFFSET 6.426697 0.000000 0.000000
										CHANNELS 3 Xrotation Yrotation Zrotation
										JOINT LeftHandIndex3
										{
											OFFSET 5.337898 0.000000 0.000000
											CHANNELS 3 Xrotation Yrotation Zrotation
											JOINT LeftHandIndex4
											{
												OFFSET 4.409401 0.000000 0.000000
												CHANNELS 3 Xrotation Yrotation Zrotation
												End Site
												{
													OFFSET 0.000000 4.409363 0.014373
												}
											}
										}
									}
								}
								JOINT LeftHandMiddle1
								{
									OFFSET 23.810104 0.000000 0.000000
									CHANNELS 3 Xrotation Yrotation Zrotation
									JOINT LeftHandMiddle2
									{
										OFFSET 7.176498 0.000000 0.000000
										CHANNELS 3 Xrotation Yrotation Zrotation
										JOINT LeftHandMiddle3
										{
											OFFSET 6.774902 0.000000 0.000000
											CHANNELS 3 Xrotation Yrotation Zrotation
											JOINT LeftHandMiddle4
											{
												OFFSET 5.403328 0.000000 0.000000
												CHANNELS 3 Xrotation Yrotation Zrotation
												End Site
												{
													OFFSET -0.027702 5.403244 0.017414
												}
											}
										}
									}
								}
								JOINT LeftHandRing1
								{
									OFFSET 22.908401 -0.839279 -6.020567
									CHANNELS 3 Xrotation Yrotation Zrotation
									JOINT LeftHandRing2
									{
										OFFSET 6.337502 0.000000 0.000000
										CHANNELS 3 Xrotation Yrotation Zrotation
										JOINT LeftHandRing3
										{
											OFFSET 5.779297 0.000000 0.000000
											CHANNELS 3 Xrotation Yrotation Zrotation
											JOINT LeftHandRing4
											{
												OFFSET 4.965698 0.000000 0.000000
												CHANNELS 3 Xrotation Yrotation Zrotation
												End Site
												{
													OFFSET 0.000000 4.965668 0.016186
												}
											}
										}
									}
								}
								JOINT LeftHandPinky1
								{
									OFFSET 20.037003 -1.530319 -10.950146
									CHANNELS 3 Xrotation Yrotation Zrotation
									JOINT LeftHandPinky2
									{
										OFFSET 5.254700 0.000000 0.000000
										CHANNELS 3 Xrotation Yrotation Zrotation
										JOINT LeftHandPinky3
										{
											OFFSET 4.810204 0.000000 0.000000
											CHANNELS 3 Xrotation Yrotation Zrotation
											JOINT LeftHandPinky4
											{
												OFFSET 3.647202 0.000000 0.000000
												CHANNELS 3 Xrotation Yrotation Zrotation
												End Site
												{
													OFFSET 0.000000 3.647186 0.011889
												}
											}
										}
									}
								}
							}
						}
					}
				}
				JOINT RightShoulder
				{
					OFFSET -15.141001 14.495407 -7.737500
					CHANNELS 3 Xrotation Yrotation Zrotation
					JOINT RightArm
					{
						OFFSET -9.308998 -2.777710 0.208500
						CHANNELS 3 Xrotation Yrotation Zrotation
						JOINT RightForeArm
						{
							OFFSET -29.972300 0.000000 0.000000
							CHANNELS 3 Xrotation Yrotation Zrotation
							JOINT RightHand
							{
								OFFSET -26.026505 0.000000 0.000000
								CHANNELS 3 Xrotation Yrotation Zrotation
								JOINT RightHandThumb1
								{
									OFFSET -12.240601 -7.148026 9.207092
									CHANNELS 3 Xrotation Yrotation Zrotation
									JOINT RightHandThumb2
									{
										OFFSET -4.138618 -2.389435 2.389433
										CHANNELS 3 Xrotation Yrotation Zrotation
										JOINT RightHandThumb3
										{
											OFFSET -2.726974 -1.574417 1.574421
											CHANNELS 3 Xrotation Yrotation Zrotation
											JOINT RightHandThumb4
											{
												OFFSET -3.941010 -2.275345 2.275343
												CHANNELS 3 Xrotation Yrotation Zrotation
												End Site
												{
													OFFSET 0.005814 5.087799 0.009927
												}
											}
										}
									}
								}
								JOINT RightHandIndex1
								{
									OFFSET -24.424698 -1.985657 5.953444
									CHANNELS 3 Xrotation Yrotation Zrotation
									JOINT RightHandIndex2
									{
										OFFSET -6.426697 0.000000 0.000000
										CHANNELS 3 Xrotation Yrotation Zrotation
										JOINT RightHandIndex3
										{
											OFFSET -5.337898 0.000000 0.000000
											CHANNELS 3 Xrotation Yrotation Zrotation
											JOINT RightHandIndex4
											{
												OFFSET -4.409401 0.000000 0.000000
												CHANNELS 3 Xrotation Yrotation Zrotation
												End Site
												{
													OFFSET 0.000000 4.409363 0.014408
												}
											}
										}
									}
								}
								JOINT RightHandMiddle1
								{
									OFFSET -23.810097 0.000000 0.000000
									CHANNELS 3 Xrotation Yrotation Zrotation
									JOINT RightHandMiddle2
									{
										OFFSET -7.176498 0.000000 0.000000
										CHANNELS 3 Xrotation Yrotation Zrotation
										JOINT RightHandMiddle3
										{
											OFFSET -6.774902 0.000000 0.000000
											CHANNELS 3 Xrotation Yrotation Zrotation
											JOINT RightHandMiddle4
											{
												OFFSET -5.403328 0.000000 0.000000
												CHANNELS 3 Xrotation Yrotation Zrotation
												End Site
												{
													OFFSET 0.027702 5.403244 0.017457
												}
											}
										}
									}
								}
								JOINT RightHandRing1
								{
									OFFSET -22.908302 -0.839325 -6.020576
									CHANNELS 3 Xrotation Yrotation Zrotation
									JOINT RightHandRing2
									{
										OFFSET -6.337502 0.000000 0.000000
										CHANNELS 3 Xrotation Yrotation Zrotation
										JOINT RightHandRing3
										{
											OFFSET -5.779297 0.000000 0.000000
											CHANNELS 3 Xrotation Yrotation Zrotation
											JOINT RightHandRing4
											{
												OFFSET -4.965698 0.000000 0.000000
												CHANNELS 3 Xrotation Yrotation Zrotation
												End Site
												{
													OFFSET 0.000000 4.965668 0.016226
												}
											}
										}
									}
								}
								JOINT RightHandPinky1
								{
									OFFSET -20.037003 -1.530334 -10.950259
									CHANNELS 3 Xrotation Yrotation Zrotation
									JOINT RightHandPinky2
									{
										OFFSET -5.254700 0.000000 0.000000
										CHANNELS 3 Xrotation Yrotation Zrotation
										JOINT RightHandPinky3
										{
											OFFSET -4.810204 0.000000 0.000000
											CHANNELS 3 Xrotation Yrotation Zrotation
											JOINT RightHandPinky4
											{
												OFFSET -3.647202 0.000000 0.000000
												CHANNELS 3 Xrotation Yrotation Zrotation
												End Site
												{
													OFFSET 0.000000 3.647186 0.011917
												}
											}
										}
									}
								}
							}
						}
					}
				}
			}
		}
	}
	JOINT LeftUpLeg
	{
		OFFSET 15.427100 -6.655098 0.678600
		CHANNELS 3 Xrotation Yrotation Zrotation
		JOINT LeftLeg
		{
			OFFSET 4.081073 -39.591068 13.024000
			CHANNELS 3 Xrotation Yrotation Zrotation
			JOINT LeftFoot
			{
				OFFSET -4.081074 -37.707932 -15.979700
				CHANNELS 3 Xrotation Yrotation Zrotation
				JOINT LeftToeBase
				{
					OFFSET 5.346399 -15.068900 20.645000
					CHANNELS 3 Xrotation Yrotation Zrotation
					JOINT LeftToe_End
					{
						OFFSET 2.754700 0.931300 11.300900
						CHANNELS 3 Xrotation Yrotation Zrotation
						End Site
						{
							OFFSET 0.000000 11.669021 0.000000
						}
					}
				}
			}
		}
	}
	JOINT RightUpLeg
	{
		OFFSET -15.569500 -6.655098 0.678600
		CHANNELS 3 Xrotation Yrotation Zrotation
		JOINT RightLeg
		{
			OFFSET -4.081825 -39.591045 13.023800
			CHANNELS 3 Xrotation Yrotation Zrotation
			JOINT RightFoot
			{
				OFFSET 4.081824 -37.707954 -15.979600
				CHANNELS 3 Xrotation Yrotation Zrotation
				JOINT RightToeBase
				{
					OFFSET -5.346400 -15.068900 20.645000
					CHANNELS 3 Xrotation Yrotation Zrotation
					JOINT RightToe_End
					{
						OFFSET -2.754700 0.931300 11.300900
						CHANNELS 3 Xrotation Yrotation Zrotation
						End Site
						{
							OFFSET 0.000000 11.669021 0.000000
						}
					}
				}
			}
		}
	}
}
MOTION
Frames: 5
Frame Time: 0.033333
3.348157 72.839012 -2.155864 -4.752456 -38.474425 0.430465 9.420034 7.435535 -1.366549 2.187717 0.989886 -0.915627 2.202829 0.982772 -0.894153 0.081327 13.217350 4.553209 8.920920 20.138133 -4.130230 -0.000001 0.000000 -0.000001 1.117179 3.546352 -8.633308 -53.487024 4.935518 -51.503007 -0.000105 -106.358107 -0.000115 1.988610 -7.706144 -15.869246 -6.141231 -11.690802 -6.761690 9.914105 42.595522 3.409883 -0.422815 8.108080 27.509111 0.000001 -0.000002 -0.000001 0.255316 3.378206 -45.814337 5.654085 5.847748 -88.067435 2.162146 4.544817 -50.866372 0.000001 0.000001 -0.000001 -0.461473 3.841592 -39.722656 6.450753 5.820349 -95.892864 2.182892 4.561574 -51.127753 -0.000001 0.000000 -0.000002 0.469726 4.966823 -39.799437 8.181036 5.368612 -113.502984 3.200488 5.218114 -63.022975 0.000000 -0.000001 0.000001 -3.762437 9.063687 -45.253814 5.342530 5.829006 -85.005311 8.716832 5.103327 -119.369194 -0.000000 0.000001 0.000001 3.036129 13.027197 -5.371407 -48.713708 27.172830 83.457064 0.000082 105.988307 -0.000087 -8.345378 17.548102 8.775693 -7.341117 13.749650 7.412333 9.855796 -44.489089 -3.903257 -0.115789 -14.513085 -28.973874 0.000000 0.000001 0.000000 -0.124376 -2.384787 45.108857 4.500582 -4.654535 88.071171 1.723219 -3.618379 50.920126 -0.000001 0.000001 0.000001 -0.761622 -2.932904 39.031055 5.133888 -4.632766 95.881663 1.739741 -3.631704 51.181353 0.000001 -0.000001 -0.000001 0.154763 -4.068810 39.122668 6.509726 -4.273597 113.462863 2.549583 -4.153917 63.067344 0.000000 -0.000000 0.000000 -4.198883 -8.025519 44.637769 4.252920 -4.639635 85.014805 6.935967 -4.062622 119.322298 -0.000001 0.000000 -0.000000 -34.255472 5.085979 20.300729 56.771644 -7.633968 3.672710 -20.132905 -7.078587 -17.222774 -1.594037 0.000002 -0.000003 -0.000000 -0.000002 -0.000000 -19.408613 -8.980175 -34.667602 57.008027 -2.876388 -4.766497 -26.306552 -10.338630 26.246240 -0.013001 -0.000028 0.000009 -0.000000 -0.000002 -0.000000 
3.273189 72.310150 0.697647 -6.045410 -37.353379 -0.596461 10.561947 6.779205 -1.051664 2.453480 0.717922 -1.155524 2.589476 0.685210 -0.947931 -0.488760 13.500061 4.619104 7.385747 19.909460 -3.705883 0.000001 0.000000 0.000000 1.315787 2.580534 -8.607003 -54.476824 6.065138 -50.329847 0.000138 -107.775857 0.000150 2.313273 -7.464111 -16.238778 -6.141230 -11.690800 -6.761694 9.914105 42.595522 3.409873 -0.422815 8.108084 27.509115 0.000002 0.000001 -0.000001 0.255316 3.378206 -45.814341 5.654086 5.847751 -88.067435 2.162149 4.544817 -50.866376 -0.000001 0.000001 0.000004 -0.461472 3.841593 -39.722666 6.450749 5.820350 -95.892864 2.182895 4.561573 -51.127750 0.000001 0.000004 -0.000002 0.469727 4.966822 -39.799437 8.181038 5.368612 -113.502984 3.200493 5.218112 -63.022975 -0.000000 -0.000001 0.000001 -3.762435 9.063686 -45.253814 5.342531 5.829009 -85.005304 8.716834 5.103327 -119.369194 -0.000002 0.000001 -0.000000 2.840155 13.076387 -5.595910 -47.960151 26.989298 83.829377 -0.000068 106.897269 0.000064 -7.443011 16.185515 8.230900 -7.341117 13.749650 7.412336 9.855797 -44.489086 -3.903257 -0.115791 -14.513086 -28.973874 -0.000002 -0.000002 0.000002 -0.124374 -2.384782 45.108857 4.500582 -4.654534 88.071171 1.723220 -3.618376 50.920126 -0.000001 -0.000002 -0.000000 -0.761622 -2.932903 39.031055 5.133892 -4.632766 95.881663 1.739741 -3.631702 51.181346 0.000000 0.000002 0.000005 0.154764 -4.068808 39.122668 6.509726 -4.273597 113.462863 2.549584 -4.153922 63.067344 -0.000005 0.000000 -0.000000 -4.198881 -8.025516 44.637772 4.252924 -4.639636 85.014805 6.935967 -4.062623 119.322298 0.000000 0.000000 -0.000000 -34.799735 4.649045 20.383614 61.752246 -5.758387 4.080104 -18.899507 -10.360633 -16.626381 -6.047055 -0.000345 0.007680 -0.000000 -0.000004 -0.000000 -16.327178 -10.134805 -35.875852 56.864706 -3.164981 -5.154153 -27.125357 -10.760145 25.211383 -2.289476 0.000024 0.000009 -0.000000 -0.000000 -0.000001 
2.517711 72.205345 3.889171 -7.513295 -35.850755 -1.669900 11.848824 6.104689 -0.847257 2.964508 -0.056776 -1.713411 3.327902 0.052909 -1.055522 -1.250354 13.804968 4.693807 5.691960 19.767746 -3.409348 0.000001 -0.000000 -0.000001 1.579057 1.278457 -8.564074 -56.439363 8.832234 -48.375313 0.000040 -110.710762 0.000039 0.148311 -7.987679 -17.517791 -6.141230 -11.690799 -6.761693 9.914116 42.595522 3.409871 -0.422817 8.108076 27.509109 0.000001 -0.000000 -0.000003 0.255317 3.378210 -45.814341 5.654085 5.847753 -88.067435 2.162148 4.544817 -50.866376 0.000001 0.000002 0.000001 -0.461471 3.841596 -39.722666 6.450756 5.820350 -95.892857 2.182893 4.561572 -51.127750 -0.000001 -0.000002 -0.000001 0.469728 4.966824 -39.799441 8.181037 5.368610 -113.502984 3.200486 5.218114 -63.022975 0.000001 -0.000001 0.000000 -3.762434 9.063689 -45.253814 5.342532 5.829008 -85.005304 8.716833 5.103324 -119.369194 0.000001 0.000000 -0.000000 2.694135 13.159136 -5.801117 -46.582372 27.971192 84.220809 0.000089 108.677346 -0.000082 -4.912514 15.152291 7.064799 -7.341116 13.749651 7.412333 9.855799 -44.489086 -3.903254 -0.115788 -14.513085 -28.973871 -0.000001 0.000000 0.000001 -0.124375 -2.384787 45.108861 4.500585 -4.654534 88.071171 1.723220 -3.618379 50.920129 0.000001 -0.000001 0.000001 -0.761620 -2.932903 39.031058 5.133890 -4.632765 95.881663 1.739743 -3.631702 51.181350 -0.000000 0.000002 0.000001 0.154765 -4.068808 39.122664 6.509724 -4.273597 113.462863 2.549583 -4.153917 63.067344 -0.000000 0.000000 -0.000001 -4.198881 -8.025515 44.637772 4.252925 -4.639636 85.014805 6.935967 -4.062627 119.322298 0.000003 0.000000 -0.000001 -34.908038 4.267416 20.504252 65.918791 -3.142590 4.686459 -16.925528 -15.863710 -16.007059 -12.242652 0.000012 -0.000000 -0.000000 0.000005 0.000000 -11.853938 -12.145126 -36.889073 55.446581 -2.449861 -5.187479 -26.987713 -11.587806 25.031764 -4.831377 -0.000048 0.000006 0.000000 0.000000 0.000000 
1.566893 72.248299 7.487295 -8.797712 -34.406521 -2.604877 12.972273 5.621569 -0.659535 3.605435 -1.066329 -2.367277 4.055208 -0.548193 -1.189515 -2.151878 14.101634 4.780129 4.017793 19.710278 -3.207601 -0.000001 0.000000 0.000000 1.730798 0.489217 -8.507002 -58.053971 11.374946 -46.777763 0.000080 -113.727103 0.000072 -2.297853 -8.533008 -18.217079 -6.141228 -11.690804 -6.761694 9.914108 42.595522 3.409871 -0.422812 8.108083 27.509106 -0.000002 -0.000000 0.000000 0.255314 3.378203 -45.814337 5.654083 5.847750 -88.067435 2.162147 4.544817 -50.866379 -0.000001 0.000003 -0.000006 -0.461475 3.841592 -39.722659 6.450748 5.820346 -95.892864 2.182893 4.561573 -51.127750 0.000001 -0.000001 0.000002 0.469725 4.966821 -39.799437 8.181035 5.368609 -113.502984 3.200485 5.218113 -63.022982 -0.000001 -0.000001 0.000000 -3.762439 9.063685 -45.253814 5.342529 5.829004 -85.005304 8.716836 5.103325 -119.369194 -0.000001 0.000000 -0.000001 2.774282 13.290118 -5.673427 -44.916478 29.423024 83.773568 0.000085 110.260536 -0.000079 -3.192529 13.819465 6.351703 -7.341119 13.749650 7.412335 9.855801 -44.489086 -3.903257 -0.115787 -14.513086 -28.973874 -0.000003 -0.000000 -0.000002 -0.124375 -2.384783 45.108861 4.500580 -4.654534 88.071171 1.723219 -3.618378 50.920122 0.000001 -0.000000 0.000001 -0.761622 -2.932900 39.031055 5.133889 -4.632764 95.881663 1.739741 -3.631706 51.181346 -0.000001 -0.000000 0.000002 0.154765 -4.068806 39.122668 6.509722 -4.273597 113.462863 2.549584 -4.153919 63.067344 0.000001 -0.000001 -0.000002 -4.198883 -8.025515 44.637772 4.252923 -4.639636 85.014805 6.935968 -4.062626 119.322298 0.000001 0.000000 -0.000001 -35.886418 4.349096 20.121500 69.990137 -1.110439 5.462023 -13.535679 -23.137913 -13.311515 -19.318528 -0.000017 0.000002 0.000000 0.000000 0.000000 -7.055151 -14.661769 -37.633717 53.167173 -1.571269 -5.321233 -26.395478 -12.370345 24.821423 -7.600675 -0.000037 -0.000001 -0.000000 0.000001 -0.000001 
0.943632 72.273376 11.400866 -9.529854 -33.595542 -3.274385 13.701559 5.479709 -0.480598 4.219802 -2.136816 -2.919721 4.561731 -0.796342 -1.309454 -3.072250 14.343933 4.891370 2.591357 19.701337 -3.034084 0.000001 0.000000 -0.000000 1.586393 1.054403 -8.374293 -58.218709 12.939775 -46.041305 0.000003 -116.145618 -0.000002 -4.244670 -8.862954 -18.225892 -6.141228 -11.690801 -6.761693 9.914108 42.595522 3.409879 -0.422813 8.108079 27.509108 0.000001 -0.000003 0.000003 0.255316 3.378209 -45.814337 5.654086 5.847754 -88.067428 2.162149 4.544816 -50.866376 0.000001 -0.000001 -0.000001 -0.461472 3.841593 -39.722666 6.450753 5.820349 -95.892857 2.182889 4.561573 -51.127753 -0.000000 -0.000001 -0.000003 0.469727 4.966823 -39.799444 8.181037 5.368612 -113.502984 3.200490 5.218114 -63.022975 -0.000001 -0.000001 0.000002 -3.762437 9.063687 -45.253814 5.342533 5.829004 -85.005304 8.716834 5.103327 -119.369194 0.000001 0.000001 -0.000001 3.118259 13.492199 -4.890815 -42.928063 31.039644 82.438635 -0.000026 111.357000 0.000031 -2.175786 12.417254 5.948953 -7.341120 13.749651 7.412339 9.855803 -44.489086 -3.903252 -0.115785 -14.513086 -28.973874 -0.000001 -0.000001 0.000001 -0.124377 -2.384783 45.108857 4.500585 -4.654533 88.071171 1.723218 -3.618378 50.920126 -0.000001 -0.000001 0.000002 -0.761623 -2.932901 39.031055 5.133891 -4.632763 95.881663 1.739740 -3.631701 51.181350 0.000000 0.000001 -0.000000 0.154761 -4.068810 39.122668 6.509724 -4.273598 113.462863 2.549583 -4.153919 63.067344 0.000000 0.000000 -0.000001 -4.198885 -8.025516 44.637769 4.252923 -4.639635 85.014798 6.935968 -4.062621 119.322298 0.000004 -0.000000 -0.000001 -38.482508 3.782619 20.260711 73.650811 -0.656050 5.757086 -6.538522 -29.999612 -9.606015 -25.477801 -0.312577 2.356751 0.000000 -0.000001 0.000000 -3.170992 -16.839838 -38.509641 50.404634 -0.367492 -5.547586 -24.757213 -12.916148 24.681966 -10.508769 0.000007 -0.000007 -0.000001 -0.000001 0.000001 
